<?xml version="1.0" encoding="utf-8"?>
<!-- Generator: Adobe Illustrator 19.0.0, SVG Export Plug-In . SVG Version: 6.00 Build 0)  -->
<svg version="1.1" id="Layer_1" xmlns="http://www.w3.org/2000/svg" xmlns:xlink="http://www.w3.org/1999/xlink" x="0px" y="0px"
	 viewBox="250 -81.4 515 126.9" style="enable-background:new 250 -81.4 515 126.9;" xml:space="preserve">
<style type="text/css">
	.st0{display:none;}
	.st1{display:inline;}
	.st2{fill:#6D6E70;}
	.st3{fill:#EC1C24;}
	.st4{fill:#8E8E8E;}
	.st5{fill:#FF2434;}
	.st6{display:inline;enable-background:new    ;}
</style>
<g id="Layer_1_1_" class="st0">
	
		<image style="display:inline;overflow:visible;enable-background:new    ;" width="500" height="186" xlink:href="7233E263.png"  transform="matrix(1 0 0 1 259.7222 -83.5556)">
	</image>
</g>
<g id="Layer_5" class="st0">
	<g class="st1">
		<path class="st2" d="M290.3,45.5c-3,0-6-0.4-8.8-1.1c-2.8-0.7-5.5-1.7-7.9-3.1c-2.5-1.3-4.8-3-6.9-4.9c-2.1-1.9-3.9-4.1-5.5-6.5
			c-1.8-3-3.2-6.3-4.2-9.9s-1.5-7.4-1.5-11.4c0-2.5,0.2-4.9,0.5-7.3c0.3-2.4,0.8-4.8,1.5-7.2c0.7-2.5,1.5-5,2.6-7.7s2.4-5.7,4-8.9
			l12.8,6.1c-1.4,2.8-2.5,5.3-3.4,7.5s-1.7,4.3-2.2,6.2c-0.6,2-1,3.8-1.2,5.6c-0.2,1.8-0.4,3.7-0.4,5.7c0,2.6,0.3,5.1,1,7.4
			c0.6,2.4,1.5,4.5,2.7,6.4c1.8,2.7,4.2,4.8,7.2,6.5c3,1.6,6.3,2.4,9.9,2.4h11.6c4,0,7.3-0.4,9.8-1.3c2.5-0.8,4.5-2,5.9-3.6
			c1.4-1.5,2.4-3.4,2.9-5.5c0.5-2.2,0.8-4.6,0.8-7.2v-38.2h14.2v38.3c0,10.6-2.8,18.5-8.4,23.8c-5.6,5.3-14,7.9-25.1,7.9H290.3z
			 M289.2-29l10.2-10.4l10.5,10.5l-10.4,10.4L289.2-29z"/>
		<path class="st2" d="M364.1,14.8h-14.2v-82h14.2V14.8z"/>
		<path class="st2" d="M406.4,14.8h-2.2c-1.6,0-3-0.1-4.4-0.3c-1.4-0.2-2.7-0.7-4.1-1.6c-0.5,4.9-1.6,9.3-3.4,13.3
			s-4.2,7.4-7.1,10.2c-3,2.8-6.5,5-10.7,6.6c-4.1,1.6-8.8,2.3-13.9,2.3h-7.1V31.1h7.1c3.6,0,6.8-0.4,9.4-1.1c2.7-0.8,4.8-2,6.5-3.6
			s3-3.8,3.8-6.5c0.8-2.7,1.3-5.9,1.3-9.8v-34.6h14.2v17c0,1.7,0.4,3.2,1.1,4.2c0.7,1.1,1.6,1.9,2.6,2.5s1.9,1,2.8,1.2
			s1.5,0.3,1.9,0.3h2.2L406.4,14.8L406.4,14.8z"/>
		<path class="st2" d="M445.8-33c0.1,0.3,0.2,0.9,0.5,1.9c0.2,1,0.5,2.2,0.8,3.6c0.3,1.4,0.6,3,0.9,4.8c0.3,1.7,0.6,3.5,0.9,5.3
			s0.5,3.5,0.7,5.2c0.2,1.7,0.3,3.1,0.3,4.4c0,3.9-0.6,7.3-1.9,10.2c-1.3,2.9-3,5.2-5.1,7.1s-4.4,3.2-7,4.2
			c-2.6,0.9-5.2,1.4-7.8,1.4h-24.5V0.7h24.9c0.5,0,1.1-0.1,2-0.2c0.9-0.1,1.7-0.5,2.6-1.1c0.9-0.6,1.6-1.4,2.2-2.6
			c0.6-1.2,1-2.7,1-4.8c0-0.8-0.1-1.9-0.2-3c-0.1-1.2-0.3-2.5-0.5-3.8c-0.2-1.3-0.5-2.8-0.8-4.2c-0.3-1.4-0.6-2.8-0.8-4
			c-0.3-1.3-0.5-2.4-0.8-3.5c-0.3-1-0.5-1.8-0.6-2.4L445.8-33z M415,45.9l-9.6-9.7l9.4-9.8l9.8,9.8L415,45.9z M438.9,45.8l-9.6-9.7
			l9.4-9.8l9.8,9.8L438.9,45.8z"/>
		<path class="st2" d="M473.9,14.8h-14.2v-82h14.2V14.8z"/>
		<path class="st3" d="M594.8-7.8c0,1.3,0.2,2.5,0.6,3.4c0.4,0.9,0.9,1.7,1.5,2.3c0.6,0.6,1.3,1.1,2.1,1.5c0.8,0.4,1.5,0.6,2.2,0.8
			c0.7,0.2,1.4,0.3,1.9,0.4s1,0.1,1.2,0.1h3.5v14.2h-3.5c-1.4,0-2.8-0.1-4.4-0.3c-1.5-0.2-3.1-0.5-4.6-1s-3-1.1-4.4-1.8
			c-1.4-0.7-2.6-1.7-3.7-2.8c-2.6,1.8-5.9,3.1-9.7,4c-2.1,0.5-4.5,0.9-7.1,1.1c-2.6,0.3-5.5,0.5-8.7,0.6c-3.2,0.1-6.7,0.2-10.4,0.2
			c-3.8,0-7.8,0-12.2,0c-8.4,0-15.8-0.1-22.1-0.3c-6.3-0.2-11.6-0.7-15.9-1.7c-2.6-0.6-5-1.5-7.1-2.6s-3.9-2.4-5.4-3.8
			c-3.3-3.5-4.9-7.9-4.9-13.3v-17.7h14.1v17.9c0,0.6,0.1,1.2,0.2,1.8c0.1,0.6,0.4,1.1,0.8,1.5c0.4,0.5,1,0.9,1.9,1.3
			c0.8,0.4,2,0.8,3.5,1.1c3.7,0.9,8.5,1.4,14.3,1.5c5.8,0.1,12.8,0.2,20.9,0.2c7.8,0,14.7-0.1,20.7-0.3c6-0.2,10.8-0.7,14.5-1.4
			c1.3-0.3,2.3-0.7,3.1-1.1c0.8-0.4,1.4-0.9,1.9-1.3c0.5-0.5,0.8-1,0.9-1.5c0.2-0.5,0.2-1.1,0.2-1.7v-18h14.1V-7.8z M527-29.2
			l-9.6-9.7l9.4-9.8l9.8,9.8L527-29.2z M550.8-29.3l-9.6-9.7l9.4-9.8l9.8,9.8L550.8-29.3z"/>
		<path class="st3" d="M638.2-33c0.1,0.3,0.2,0.9,0.5,1.9c0.2,1,0.5,2.2,0.8,3.6c0.3,1.4,0.6,3,0.9,4.8c0.3,1.7,0.6,3.5,0.9,5.3
			c0.3,1.8,0.5,3.5,0.7,5.2s0.3,3.1,0.3,4.4c0,3.9-0.6,7.3-1.9,10.2c-1.3,2.9-3,5.2-5.1,7.1s-4.4,3.2-7,4.2
			c-2.6,0.9-5.2,1.4-7.8,1.4h-15.1V0.7h15.5c0.5,0,1.1-0.1,2-0.2c0.9-0.1,1.7-0.5,2.6-1.1s1.6-1.4,2.2-2.6s1-2.7,1-4.8
			c0-0.8-0.1-1.9-0.2-3s-0.3-2.5-0.5-3.8s-0.5-2.8-0.8-4.2c-0.3-1.4-0.6-2.8-0.8-4c-0.3-1.3-0.5-2.4-0.8-3.5c-0.3-1-0.5-1.8-0.6-2.4
			L638.2-33z M616.9-55.9l10.2-10.4l10.5,10.5l-10.4,10.4L616.9-55.9z"/>
		<path class="st3" d="M655.9,31.2c3,0,5.7-0.1,8.1-0.3c2.4-0.2,4.5-0.5,6.3-0.9s3.5-0.9,4.8-1.5c1.4-0.6,2.6-1.4,3.6-2.2
			c1.6-1.3,2.8-2.8,3.6-4.5s1.3-4,1.5-6.9H675c-1.9,0-3.8-0.2-5.8-0.5s-3.9-0.8-5.7-1.6c-1.8-0.7-3.5-1.7-5.2-2.9
			c-1.6-1.2-3-2.6-4.2-4.4c-1.2-1.7-2.1-3.8-2.8-6.1c-0.7-2.4-1.1-5-1.1-8.1c0-2.6,0.2-4.9,0.7-7c0.5-2,1-3.8,1.7-5.4
			c0.7-1.6,1.5-2.9,2.4-4.1c0.9-1.2,1.7-2.2,2.5-3c2.3-2.3,4.9-4,7.7-5.3c2.9-1.2,6-1.9,9.3-1.9c4.1,0,7.7,0.7,10.6,2.1
			c2.9,1.4,5.4,3.4,7.2,5.9c1.9,2.5,3.3,5.5,4.1,8.9c0.9,3.4,1.3,7.2,1.3,11.2v7.7h9.7v14.2h-9.7c-0.2,5.2-1.1,9.6-2.8,13.1
			c-1.7,3.6-4.2,6.7-7.5,9.3c-1.7,1.4-3.6,2.6-5.7,3.6c-2,1-4.3,1.9-6.9,2.5c-2.5,0.7-5.4,1.2-8.5,1.5c-3.1,0.3-6.7,0.5-10.6,0.5
			V31.2H655.9z M674.7-21c-3.2,0-5.8,1-7.7,3s-2.8,5.1-2.8,9.4c0,1.7,0.3,3.1,1,4.3c0.7,1.2,1.5,2.1,2.6,2.9c1,0.7,2.2,1.3,3.5,1.6
			c1.3,0.3,2.6,0.5,3.9,0.5h8.8V-7c0-2.2-0.2-4-0.5-5.5s-0.8-2.8-1.3-3.8c-0.6-1-1.2-1.8-1.9-2.4c-0.7-0.6-1.4-1.1-2-1.4
			c-0.7-0.3-1.3-0.5-1.9-0.6C675.6-21,675.1-21,674.7-21z"/>
		<path class="st3" d="M704.1,14.8V0.7h23.2c3.2,0,5.9-0.2,8-0.5c2.1-0.4,3.9-0.8,5.2-1.4c1.3-0.6,2.3-1.2,3-1.9
			c0.7-0.7,1.1-1.4,1.5-2.1h-6.1c-3.7,0-7.1-0.3-10.3-0.9s-6-1.7-8.3-3.3c-2.4-1.6-4.2-3.7-5.6-6.3c-1.4-2.6-2-6-2-10
			c0-3.2,0.6-6.2,1.8-9c1.2-2.8,2.8-5.2,4.9-7.3s4.6-3.7,7.5-4.8s6-1.6,9.4-1.5c3,0.2,5.7,0.7,8.1,1.6c2.3,0.9,4.4,2.1,6.1,3.7
			c1.7,1.5,3.2,3.3,4.3,5.4c1.2,2,2.1,4.2,2.8,6.6c0.7,2.4,1.2,4.8,1.5,7.4c0.3,2.6,0.5,5.2,0.5,7.8l-0.2,4.2
			c-0.3,5.3-1.4,9.7-3.2,13.1c-1.8,3.4-4.2,6.1-7.1,8.1s-6.2,3.4-9.9,4.2c-3.7,0.8-7.6,1.2-11.7,1.2h-23.4V14.8z M724-70.7
			l10.2-10.4l10.5,10.5l-10.4,10.4L724-70.7z M736.1-34.2c-1.4-0.1-2.7,0-4,0.3c-1.3,0.3-2.4,0.8-3.4,1.5c-1,0.7-1.7,1.6-2.3,2.7
			c-0.6,1.1-0.9,2.4-0.9,3.8c0,1.7,0.4,3,1.3,4c0.9,1,1.9,1.8,3.2,2.3c1.3,0.6,2.8,0.9,4.3,1.1c1.6,0.2,3.1,0.3,4.6,0.3h6.6
			c-0.1-1.6-0.2-3.3-0.4-5.1c-0.2-1.8-0.6-3.4-1.2-5c-0.6-1.5-1.6-2.8-2.8-3.9C739.9-33.3,738.2-33.9,736.1-34.2z"/>
	</g>
</g>
<g id="Layer_4">
	<g>
		<path class="st4" d="M290.4,45.1c-3,0-6-0.4-8.8-1.1c-2.8-0.7-5.5-1.7-7.9-3.1c-2.5-1.3-4.8-3-6.9-4.9c-2.1-1.9-3.9-4.1-5.5-6.5
			c-1.8-3-3.2-6.2-4.2-9.9c-1-3.6-1.5-7.4-1.5-11.3c0-2.5,0.2-4.9,0.5-7.3c0.3-2.4,0.8-4.8,1.5-7.2c0.7-2.5,1.5-5,2.6-7.7
			c1.1-2.7,2.4-5.6,4-8.9l12.8,6.1c-1.4,2.8-2.5,5.3-3.4,7.5c-1,2.2-1.7,4.2-2.3,6.2c-0.6,2-1,3.8-1.2,5.6c-0.2,1.8-0.4,3.7-0.4,5.7
			c0,2.6,0.3,5.1,1,7.4c0.6,2.4,1.5,4.5,2.7,6.4c1.8,2.7,4.2,4.8,7.2,6.5c3,1.6,6.3,2.4,9.9,2.4H302c4,0,7.3-0.4,9.8-1.3
			c2.5-0.8,4.5-2,5.9-3.6c1.4-1.5,2.4-3.4,2.9-5.5c0.5-2.2,0.8-4.5,0.8-7.2v-38.2h14.2v38.3c0,10.6-2.8,18.5-8.4,23.8
			c-5.6,5.3-14,7.9-25.1,7.9L290.4,45.1L290.4,45.1z M289.3-29.3l10.2-10.4L310-29.1l-10.4,10.3L289.3-29.3z"/>
		<path class="st4" d="M363.9,14.5h-14.1v-82H364v82H363.9z"/>
		<path class="st4" d="M407,14.5h-2.2c-1.6,0-3-0.1-4.4-0.3c-1.4-0.2-2.7-0.7-4.1-1.6c-0.5,4.9-1.6,9.3-3.4,13.3
			c-1.8,4-4.2,7.4-7.1,10.2c-3,2.8-6.5,5-10.7,6.6c-4.1,1.6-8.8,2.3-13.9,2.3h-7.1V30.8h7.1c3.6,0,6.8-0.4,9.4-1.1
			c2.7-0.8,4.8-2,6.5-3.6c1.7-1.7,3-3.8,3.8-6.5c0.8-2.7,1.3-5.9,1.3-9.8v-34.6h14.2v17c0,1.7,0.4,3.1,1.1,4.2s1.6,1.9,2.6,2.5
			s1.9,1,2.8,1.2c0.9,0.2,1.5,0.3,1.9,0.3h2.2V14.5L407,14.5z"/>
		<path class="st4" d="M446.4-33.2c0.1,0.3,0.2,0.9,0.5,1.9c0.2,1,0.5,2.2,0.8,3.6c0.3,1.4,0.6,3,0.9,4.7c0.3,1.7,0.6,3.5,0.9,5.3
			s0.5,3.5,0.7,5.1c0.2,1.7,0.3,3.1,0.3,4.4c0,3.9-0.6,7.3-1.9,10.2c-1.3,2.9-3,5.2-5.1,7.1c-2.1,1.9-4.4,3.2-7,4.2
			c-2.6,0.9-5.2,1.4-7.8,1.4h-24.5V0.4H429c0.5,0,1.1-0.1,2-0.2s1.7-0.5,2.6-1.1s1.6-1.4,2.2-2.6c0.6-1.2,1-2.7,1-4.7
			c0-0.8-0.1-1.8-0.2-3s-0.3-2.5-0.5-3.8c-0.2-1.4-0.5-2.8-0.8-4.2c-0.3-1.4-0.6-2.8-0.8-4c-0.3-1.3-0.5-2.4-0.8-3.5
			c-0.3-1-0.5-1.8-0.6-2.4L446.4-33.2z M415.7,45.5l-9.6-9.7l9.4-9.8l9.8,9.8L415.7,45.5z M439.5,45.5l-9.6-9.7l9.4-9.8l9.8,9.8
			L439.5,45.5z"/>
		<path class="st4" d="M473.3,14.5h-14.2v-82h14.2V14.5z"/>
		<path class="st5" d="M595.9-24.8v16.7c0,1.3,0.2,2.5,0.6,3.4s0.9,1.7,1.5,2.3c0.6,0.6,1.3,1.1,2.1,1.5c0.8,0.4,1.5,0.6,2.2,0.8
			c0.7,0.2,1.4,0.3,1.9,0.4c0.6,0.1,1,0.1,1.2,0.1h3.5v14.2h-3.5c-1.3,0-2.7-0.1-4.1-0.3c-1.4-0.2-2.9-0.5-4.4-0.9s-2.9-0.9-4.2-1.6
			c-1.4-0.7-2.6-1.5-3.6-2.5c-4.1,3.5-9.7,5.2-16.8,5.2h-65.6c-2.8,0-5.5-0.5-8-1.4s-4.7-2.3-6.7-4.2c-0.8-0.7-1.5-1.6-2.4-2.6
			c-0.8-1-1.5-2.2-2.2-3.6c-0.6-1.4-1.2-3-1.6-4.7c-0.4-1.8-0.6-3.7-0.6-5.9c0-1.9,0.2-4,0.6-6.2s0.8-4.3,1.3-6.3s0.9-3.7,1.3-5.1
			c0.4-1.4,0.7-2.3,0.8-2.7L496-26l6.7,2.1c-0.3,1-0.7,2.2-1.1,3.7c-0.4,1.4-0.7,2.9-1.1,4.4c-0.3,1.5-0.6,3-0.9,4.4
			c-0.2,1.4-0.3,2.6-0.3,3.6c0,1.8,0.3,3.3,0.8,4.4s1.1,2,1.9,2.6c0.7,0.6,1.5,1,2.4,1.2c0.9,0.2,1.6,0.3,2.3,0.3h65.1
			c2.1,0,3.9-0.2,5.3-0.6c1.5-0.4,2.6-1,3.3-1.7c0.9-1,1.3-2.4,1.3-4.3v-18.9H595.9z M528.1-29.5l-9.6-9.7l9.4-9.8l9.8,9.8
			L528.1-29.5z M552-29.5l-9.6-9.7l9.4-9.8l9.8,9.8L552-29.5z"/>
		<path class="st5" d="M639.3-33.2c0.1,0.3,0.2,0.9,0.5,1.9c0.2,1,0.5,2.2,0.8,3.6c0.3,1.4,0.6,3,0.9,4.7c0.3,1.7,0.6,3.5,0.9,5.3
			s0.5,3.5,0.7,5.1c0.2,1.7,0.3,3.1,0.3,4.4c0,3.9-0.6,7.3-1.9,10.2c-1.3,2.9-3,5.2-5.1,7.1s-4.4,3.2-7,4.2
			c-2.6,0.9-5.2,1.4-7.8,1.4h-15.1V0.4H622c0.5,0,1.1-0.1,2-0.2c0.9-0.1,1.7-0.5,2.6-1.1s1.6-1.4,2.2-2.6s1-2.7,1-4.7
			c0-0.8-0.1-1.8-0.2-3s-0.3-2.5-0.5-3.8c-0.2-1.4-0.5-2.8-0.8-4.2c-0.3-1.4-0.6-2.8-0.8-4c-0.3-1.3-0.5-2.4-0.8-3.5
			c-0.3-1-0.5-1.8-0.6-2.4L639.3-33.2z M618-56.1l10.2-10.4L638.7-56l-10.4,10.4L618-56.1z"/>
		<path class="st5" d="M655.8,30.9c3,0,5.7-0.1,8.1-0.3c2.4-0.2,4.5-0.5,6.3-0.9c1.8-0.4,3.5-0.9,4.8-1.5c1.4-0.6,2.6-1.4,3.6-2.2
			c1.6-1.3,2.8-2.8,3.6-4.5c0.8-1.7,1.3-4,1.5-6.9H675c-1.9,0-3.8-0.2-5.8-0.5s-3.9-0.8-5.7-1.6s-3.5-1.7-5.1-2.9
			c-1.6-1.2-3-2.6-4.2-4.4c-1.2-1.7-2.1-3.8-2.8-6.1c-0.7-2.4-1.1-5-1.1-8.1c0-2.6,0.2-4.9,0.7-7c0.5-2,1-3.8,1.7-5.4
			s1.5-2.9,2.4-4.1c0.9-1.2,1.7-2.2,2.5-3c2.3-2.3,4.9-4,7.7-5.3c2.9-1.2,6-1.8,9.3-1.8c4.1,0,7.7,0.7,10.6,2.1
			c2.9,1.4,5.3,3.4,7.2,5.9s3.3,5.5,4.1,8.9c0.9,3.4,1.3,7.2,1.3,11.2v7.7h9.7v14.2h-9.7c-0.2,5.2-1.1,9.6-2.8,13.1
			c-1.7,3.6-4.2,6.7-7.5,9.3c-1.7,1.4-3.6,2.5-5.7,3.6c-2,1-4.3,1.8-6.9,2.5c-2.5,0.7-5.4,1.2-8.5,1.5s-6.7,0.5-10.6,0.5L655.8,30.9
			L655.8,30.9z M674.6-21.3c-3.2,0-5.8,1-7.7,3s-2.8,5.1-2.8,9.4c0,1.7,0.3,3.1,1,4.3c0.7,1.2,1.5,2.1,2.6,2.9s2.2,1.3,3.5,1.6
			c1.3,0.3,2.6,0.5,3.9,0.5h8.8v-7.7c0-2.2-0.2-4-0.5-5.5c-0.3-1.5-0.8-2.8-1.3-3.8c-0.6-1-1.2-1.8-1.9-2.4s-1.4-1.1-2-1.4
			c-0.7-0.3-1.3-0.5-1.9-0.6C675.4-21.3,674.9-21.3,674.6-21.3z"/>
		<path class="st5" d="M704,14.5V0.4h23.2c3.2,0,5.9-0.2,8-0.5c2.2-0.4,3.9-0.8,5.3-1.4c1.3-0.6,2.4-1.2,3-1.9
			c0.7-0.7,1.2-1.4,1.5-2.1c-5,0.7-9.6,0.7-13.6,0.2S724-7,721.2-8.7c-2.8-1.7-5-4-6.5-6.9s-2.2-6.3-2.2-10.4c0-3.2,0.6-6.2,1.8-9
			c1.2-2.8,2.8-5.3,4.9-7.4s4.6-3.8,7.5-4.9c2.9-1.2,6-1.7,9.4-1.6c3,0.1,5.7,0.6,8,1.6c2.3,0.9,4.4,2.2,6.1,3.8s3.2,3.4,4.3,5.4
			c1.2,2.1,2.1,4.3,2.8,6.7c0.7,2.4,1.2,4.9,1.5,7.5s0.5,5.2,0.5,7.8l-0.2,4.2c-0.3,5.3-1.4,9.7-3.2,13.1c-1.8,3.4-4.2,6.1-7.1,8.1
			c-2.9,2-6.2,3.4-9.9,4.2c-3.7,0.8-7.6,1.2-11.7,1.2H704V14.5z M723.9-71l10.2-10.4l10.5,10.5l-10.4,10.4L723.9-71z M735.9-34.8
			c-1.4-0.1-2.7,0-4,0.3c-1.3,0.3-2.4,0.9-3.4,1.6c-1,0.8-1.7,1.7-2.3,2.8c-0.6,1.1-0.9,2.4-0.9,3.9c0,3.3,1.7,5.7,5.2,7.1
			c3.5,1.5,8.5,1.7,15,0.6c-0.1-1.6-0.2-3.4-0.4-5.2s-0.6-3.5-1.3-5.1c-0.6-1.6-1.6-2.9-2.8-4.1C739.7-33.9,738-34.6,735.9-34.8z"/>
	</g>
</g>
<g id="Layer_3" class="st0">
	<g class="st6">
		<path class="st3" d="M829.4-112.4h-52.2c-8,0-14.4-0.5-19.3-1.5c-5.8-1.2-10.3-3.1-13.3-5.9c-3.3-3-4.9-7-4.9-12.1
			c0-3.4,1-7.3,2.9-11.8c1.4-3.1,2.4-5.4,3.1-6.9l2.3,1.3c-1.6,3.3-2.7,5.8-3.2,7.5c-0.5,1.7-0.8,3.3-0.8,4.7c0,5,2.7,8.7,8.2,11.1
			s14.1,3.6,26,3.6h41.9c-4.4-1.2-7.7-2.6-9.8-4.2c-2.4-1.8-3.6-4.1-3.6-6.8c0-3.5,1.2-7.3,3.5-11.3c2.7-4.5,5.6-6.8,8.8-6.8
			c3.8,0,6.5,2.2,8.1,6.7c1.4,3.7,2.1,9,2.1,15.9V-112.4z M817.9-170.2l-4.4,8.2l-9.2-4.8l4.2-8.3L817.9-170.2z M823.5-129.7
			c0-3.3-0.4-5.8-1.1-7.6c-0.9-2.1-2.2-3.2-4-3.2c-1.3,0-2.2,0.4-2.9,1.2c-0.6,0.8-0.9,1.9-0.9,3.3c0,1.9,0.8,3.3,2.3,4.2
			C818.1-131.1,820.3-130.4,823.5-129.7z"/>
		<path class="st3" d="M879.8-115.8c0,6.3-2.3,12.5-6.9,18.7c-5.2,6.9-11.1,10.4-17.9,10.4c-2.5,0-5.1-0.3-7.7-0.9
			c-1.9-0.4-4.5-1.1-7.6-2.2c-2.5-0.9-4.9-1.7-7.4-2.6l1-2c2.1,0.5,4.4,1,6.7,1.6s4.4,0.8,6.3,0.8c4.6,0,9-1.2,13.1-3.5
			c3.2-1.9,6.4-4.5,9.7-8.1c1.6-1.8,3.9-4.7,6.9-8.7c-5.1,0-8.9-0.8-11.5-2.4c-2.9-1.9-4.3-4.9-4.3-9.2c0-3.9,0.9-7.5,2.7-10.9
			c2.1-3.9,4.8-5.8,8.1-5.8c3.3,0,5.7,1.9,7.1,5.7c1.1,3,1.7,7.2,1.7,12.5V-115.8z M876.2-122c-0.8-3.6-1.8-6.2-3-7.6
			c-1-1.2-2.3-1.8-3.8-1.8c-1.1,0-2,0.4-2.8,1.1c-0.8,0.7-1.2,1.6-1.2,2.6c0,1.9,0.8,3.3,2.5,4.2C869.7-122.5,872.4-122,876.2-122z"
			/>
		<path class="st3" d="M908.2-112.4h-32.4v-9.9H904c0-4.5-0.5-7.9-1.6-10.2c-0.7-1.6-2.5-4-5.3-7.1l4.4-9.3c2.7,3.5,4.4,6.1,5.1,8.1
			c1,2.9,1.5,7.8,1.5,14.5V-112.4z M903.7-165l-4.4,8.2l-9.2-4.8l4.2-8.3L903.7-165z"/>
		<path class="st3" d="M936.6-112.4h-32.4v-9.9h28.3c0-4.5-0.5-7.9-1.6-10.2c-0.7-1.6-2.5-4-5.3-7.1l4.4-9.3
			c2.7,3.5,4.4,6.1,5.1,8.1c1,2.9,1.5,7.8,1.5,14.5V-112.4z M923.3-163.3l-4.3,8.1l-9.4-4.8l4.4-8.2L923.3-163.3z M936.3-168.6
			l-4.2,8.2l-9.3-4.8l4.3-8.2L936.3-168.6z"/>
	</g>
	<g class="st6">
		<path class="st3" d="M829.4-112.4h-52.2c-8,0-14.4-0.5-19.3-1.5c-5.8-1.2-10.3-3.1-13.3-5.9c-3.3-3-4.9-7-4.9-12.1
			c0-3.4,1-7.3,2.9-11.8c1.4-3.1,2.4-5.4,3.1-6.9l2.3,1.3c-1.6,3.3-2.7,5.8-3.2,7.5c-0.5,1.7-0.8,3.3-0.8,4.7c0,5,2.7,8.7,8.2,11.1
			s14.1,3.6,26,3.6h41.9c-4.4-1.2-7.7-2.6-9.8-4.2c-2.4-1.8-3.6-4.1-3.6-6.8c0-3.5,1.2-7.3,3.5-11.3c2.7-4.5,5.6-6.8,8.8-6.8
			c3.8,0,6.5,2.2,8.1,6.7c1.4,3.7,2.1,9,2.1,15.9V-112.4z M817.9-170.2l-4.4,8.2l-9.2-4.8l4.2-8.3L817.9-170.2z M823.5-129.7
			c0-3.3-0.4-5.8-1.1-7.6c-0.9-2.1-2.2-3.2-4-3.2c-1.3,0-2.2,0.4-2.9,1.2c-0.6,0.8-0.9,1.9-0.9,3.3c0,1.9,0.8,3.3,2.3,4.2
			C818.1-131.1,820.3-130.4,823.5-129.7z"/>
		<path class="st3" d="M879.8-115.8c0,6.3-2.3,12.5-6.9,18.7c-5.2,6.9-11.1,10.4-17.9,10.4c-2.5,0-5.1-0.3-7.7-0.9
			c-1.9-0.4-4.5-1.1-7.6-2.2c-2.5-0.9-4.9-1.7-7.4-2.6l1-2c2.1,0.5,4.4,1,6.7,1.6s4.4,0.8,6.3,0.8c4.6,0,9-1.2,13.1-3.5
			c3.2-1.9,6.4-4.5,9.7-8.1c1.6-1.8,3.9-4.7,6.9-8.7c-5.1,0-8.9-0.8-11.5-2.4c-2.9-1.9-4.3-4.9-4.3-9.2c0-3.9,0.9-7.5,2.7-10.9
			c2.1-3.9,4.8-5.8,8.1-5.8c3.3,0,5.7,1.9,7.1,5.7c1.1,3,1.7,7.2,1.7,12.5V-115.8z M876.2-122c-0.8-3.6-1.8-6.2-3-7.6
			c-1-1.2-2.3-1.8-3.8-1.8c-1.1,0-2,0.4-2.8,1.1c-0.8,0.7-1.2,1.6-1.2,2.6c0,1.9,0.8,3.3,2.5,4.2C869.7-122.5,872.4-122,876.2-122z"
			/>
		<path class="st3" d="M908.2-112.4h-32.4v-9.9H904c0-4.5-0.5-7.9-1.6-10.2c-0.7-1.6-2.5-4-5.3-7.1l4.4-9.3c2.7,3.5,4.4,6.1,5.1,8.1
			c1,2.9,1.5,7.8,1.5,14.5V-112.4z M903.7-165l-4.4,8.2l-9.2-4.8l4.2-8.3L903.7-165z"/>
		<path class="st3" d="M936.6-112.4h-32.4v-9.9h28.3c0-4.5-0.5-7.9-1.6-10.2c-0.7-1.6-2.5-4-5.3-7.1l4.4-9.3
			c2.7,3.5,4.4,6.1,5.1,8.1c1,2.9,1.5,7.8,1.5,14.5V-112.4z M923.3-163.3l-4.3,8.1l-9.4-4.8l4.4-8.2L923.3-163.3z M936.3-168.6
			l-4.2,8.2l-9.3-4.8l4.3-8.2L936.3-168.6z"/>
	</g>
	<g class="st6">
		<path class="st3" d="M829.4-112.4h-52.2c-8,0-14.4-0.5-19.3-1.5c-5.8-1.2-10.3-3.1-13.3-5.9c-3.3-3-4.9-7-4.9-12.1
			c0-3.4,1-7.3,2.9-11.8c1.4-3.1,2.4-5.4,3.1-6.9l2.3,1.3c-1.6,3.3-2.7,5.8-3.2,7.5c-0.5,1.7-0.8,3.3-0.8,4.7c0,5,2.7,8.7,8.2,11.1
			s14.1,3.6,26,3.6h41.9c-4.4-1.2-7.7-2.6-9.8-4.2c-2.4-1.8-3.6-4.1-3.6-6.8c0-3.5,1.2-7.3,3.5-11.3c2.7-4.5,5.6-6.8,8.8-6.8
			c3.8,0,6.5,2.2,8.1,6.7c1.4,3.7,2.1,9,2.1,15.9V-112.4z M817.9-170.2l-4.4,8.2l-9.2-4.8l4.2-8.3L817.9-170.2z M823.5-129.7
			c0-3.3-0.4-5.8-1.1-7.6c-0.9-2.1-2.2-3.2-4-3.2c-1.3,0-2.2,0.4-2.9,1.2c-0.6,0.8-0.9,1.9-0.9,3.3c0,1.9,0.8,3.3,2.3,4.2
			C818.1-131.1,820.3-130.4,823.5-129.7z"/>
		<path class="st3" d="M879.8-115.8c0,6.3-2.3,12.5-6.9,18.7c-5.2,6.9-11.1,10.4-17.9,10.4c-2.5,0-5.1-0.3-7.7-0.9
			c-1.9-0.4-4.5-1.1-7.6-2.2c-2.5-0.9-4.9-1.7-7.4-2.6l1-2c2.1,0.5,4.4,1,6.7,1.6s4.4,0.8,6.3,0.8c4.6,0,9-1.2,13.1-3.5
			c3.2-1.9,6.4-4.5,9.7-8.1c1.6-1.8,3.9-4.7,6.9-8.7c-5.1,0-8.9-0.8-11.5-2.4c-2.9-1.9-4.3-4.9-4.3-9.2c0-3.9,0.9-7.5,2.7-10.9
			c2.1-3.9,4.8-5.8,8.1-5.8c3.3,0,5.7,1.9,7.1,5.7c1.1,3,1.7,7.2,1.7,12.5V-115.8z M876.2-122c-0.8-3.6-1.8-6.2-3-7.6
			c-1-1.2-2.3-1.8-3.8-1.8c-1.1,0-2,0.4-2.8,1.1c-0.8,0.7-1.2,1.6-1.2,2.6c0,1.9,0.8,3.3,2.5,4.2C869.7-122.5,872.4-122,876.2-122z"
			/>
		<path class="st3" d="M908.2-112.4h-32.4v-9.9H904c0-4.5-0.5-7.9-1.6-10.2c-0.7-1.6-2.5-4-5.3-7.1l4.4-9.3c2.7,3.5,4.4,6.1,5.1,8.1
			c1,2.9,1.5,7.8,1.5,14.5V-112.4z M903.7-165l-4.4,8.2l-9.2-4.8l4.2-8.3L903.7-165z"/>
		<path class="st3" d="M936.6-112.4h-32.4v-9.9h28.3c0-4.5-0.5-7.9-1.6-10.2c-0.7-1.6-2.5-4-5.3-7.1l4.4-9.3
			c2.7,3.5,4.4,6.1,5.1,8.1c1,2.9,1.5,7.8,1.5,14.5V-112.4z M923.3-163.3l-4.3,8.1l-9.4-4.8l4.4-8.2L923.3-163.3z M936.3-168.6
			l-4.2,8.2l-9.3-4.8l4.3-8.2L936.3-168.6z"/>
	</g>
</g>
</svg>
