<?xml version="1.0" encoding="utf-8"?>
<!-- Generator: Adobe Illustrator 19.0.0, SVG Export Plug-In . SVG Version: 6.00 Build 0)  -->
<svg version="1.1" id="Layer_1" xmlns="http://www.w3.org/2000/svg" xmlns:xlink="http://www.w3.org/1999/xlink" x="0px" y="0px"
	 viewBox="240 -248 496 512" style="enable-background:new 240 -248 496 512;" xml:space="preserve">
<path d="M695.7-150H501.4l-26.1-79.3c-1.3-4-5-6.7-9.2-6.7H280.4c-22.3,0-40.4,18.2-40.4,40.6v323.8c0,22.4,18.1,40.6,40.4,40.6
	h196.8l26.2,79.3c1.3,4,5,6.7,9.2,6.7h183.1c22.3,0,40.4-18.2,40.4-40.6v-323.8C736.1-131.8,718-150,695.7-150z M388.7,38.8
	c-39.8,0-72.2-32.6-72.2-72.6s32.4-72.6,72.2-72.6c19.3,0,37.4,7.6,51.1,21.3c3.8,3.8,3.8,10,0,13.8c-3.8,3.8-9.9,3.8-13.7,0
	c-10-10-23.2-15.5-37.3-15.5c-29.1,0-52.8,23.8-52.8,53.1s23.7,53.1,52.8,53.1c25.8,0,47.3-18.7,51.9-43.3h-51.9
	c-5.4,0-9.7-4.4-9.7-9.8s4.3-9.8,9.7-9.8h62.5c5.4,0,9.7,4.4,9.7,9.8C460.9,6.3,428.5,38.8,388.7,38.8z M497.7,169h72.8l-53.8,57.6
	L497.7,169z M567,36.1c0.8,1.1,10.5,14.5,25.5,33.2c-4.2,5.6-8.7,11.2-13.5,16.6L550.2-1.6H635c-6,12.7-16.4,32.9-30.7,54.3
	c-13.1-16.5-21.4-27.9-21.6-28.1c-3.2-4.4-9.2-5.3-13.6-2.2C564.8,25.6,563.8,31.7,567,36.1z M695.7,235.4H535.1l64.9-69.5l0,0
	c0.3-0.3,0.6-0.6,0.8-1c1.8-2.5,2.3-5.8,1.3-8.8L586,107.1c6.9-7.2,13.3-14.8,19.2-22.4c12.9,15.4,28.1,32.6,44.4,48.9
	c1.9,1.9,4.4,2.9,6.9,2.9c2.5,0,5-1,6.9-2.9c3.8-3.8,3.8-10,0-13.8c-16.9-17-33-35.3-46.2-51.3c20.6-29.7,33.9-58,39.3-70.1h20.8
	c5.4,0,9.7-4.4,9.7-9.8c0-5.4-4.3-9.8-9.7-9.8h-27.3c0,0,0,0-0.1,0h-36.7v-17.6c0-5.4-4.3-9.8-9.7-9.8c-5.4,0-9.7,4.4-9.7,9.8v17.6
	h-49.8l-36-109.4h187.9c11.5,0,20.9,9.4,20.9,21.1v323.8h0C716.7,226,707.3,235.4,695.7,235.4z"/>
</svg>
